<svg transform="scale(1)" id="_0530_search_engine" xmlns="http://www.w3.org/2000/svg" xmlns:xlink="http://www.w3.org/1999/xlink" viewBox="0 0 500 500" class="show_show__wrapper__graphic__5Waiy "><title>React</title><defs><style>.cls-1{opacity:.31;}.cls-1,.cls-2,.cls-3,.cls-4,.cls-5,.cls-6,.cls-7,.cls-8{stroke-width:0px;}.cls-1,.cls-3{isolation:isolate;}.cls-1,.cls-3,.cls-8{fill:#68e1fd;}.cls-2{fill:url(#linear-gradient);}.cls-3{opacity:.18;}.cls-9{fill:none;stroke:#fff;stroke-miterlimit:10;stroke-width:1.85px;}.cls-10{opacity:.41;}.cls-4{fill:#231f20;}.cls-5{fill:#fff;}.cls-6{fill:#fcbdba;}.cls-7{fill:#f6a569;}</style><linearGradient id="linear-gradient" x1="-199.7" y1="1771.09" x2="15.47" y2="2633.1" gradientTransform="translate(386.65 2293.33) scale(1 -1)" gradientUnits="userSpaceOnUse"><stop offset="0" stop-color="#231f20"></stop><stop offset=".08" stop-color="#231f20" stop-opacity=".69"></stop><stop offset=".21" stop-color="#231f20" stop-opacity=".32"></stop><stop offset="1" stop-color="#231f20" stop-opacity="0"></stop></linearGradient></defs><path class="cls-3" id="background" d="M223.19,60.44c-2.2-.08-4.38-.13-6.55-.18-34.85-.73-70.41.45-103.32,11.93-32.91,11.48-63.24,34.75-75.89,67.18-6.55,16.84-8.1,35.13-10.54,53.03-4.56,33.57-12.49,66.85-12.91,100.71-.42,33.87,7.66,69.52,30.92,94.19,40.34,42.86,96.3,17.46,144.3,5.91,28.49-6.83,58.12-7.35,86.83-1.55,18.95,3.83,37.25,10.43,56.19,14.49,13.63,2.92,27.8,4.53,41.68,2.73,13.33-1.72,23.61-8.08,35.76-13.2,23.11-9.81,46.48-22.3,61.22-43.35,11.29-16.53,16.48-36.48,14.66-56.42-4.53-52.56-53.63-74.63-78.98-115.94-14.76-24.01-24.82-51.23-43.81-72.05-34.07-37.29-88.65-45.88-139.55-47.5Z"></path><g id="phone"><path class="cls-8" d="M298.44,113.41v260.69c0,12.57-10.19,22.77-22.77,22.77h-112.83c-12.57,0-22.77-10.19-22.77-22.77V113.41c0-12.57,10.18-22.77,22.76-22.78,0,0,0,0,.01,0h112.83c12.57,0,22.77,10.19,22.77,22.77h0Z"></path><rect class="cls-4" x="143.19" y="94.5" width="152.13" height="298.03" rx="22.02" ry="22.02"></rect><path class="cls-5" d="M291.18,119.01v245.96c-.12,11.61-9.63,20.93-21.24,20.81h-101.28c-3.7.01-7.34-.94-10.56-2.76-6.58-3.63-10.67-10.54-10.7-18.06V119.01c.13-11.62,9.64-20.94,21.26-20.81h17.11v3.03c.09,4.06,2.61,7.67,6.38,9.16,1.24.49,2.56.74,3.89.74h47.04c5.61.04,10.2-4.46,10.28-10.06v-2.86h16.6c5.45-.01,10.69,2.05,14.67,5.77,4.17,3.89,6.53,9.34,6.53,15.04Z"></path><rect class="cls-1" x="165.25" y="265.49" width="62.56" height="3.72" rx="1.85" ry="1.85"></rect><rect class="cls-1" x="165.25" y="274.57" width="62.56" height="3.72" rx="1.85" ry="1.85"></rect><path class="cls-8" d="M168.24,256.28h94.7c1.65,0,2.99,1.34,2.99,2.99h0c0,1.65-1.34,2.99-2.99,2.99h-94.7c-1.65,0-2.99-1.34-2.99-2.99h0c0-1.65,1.34-2.99,2.99-2.99Z"></path><rect class="cls-1" x="165.25" y="296.73" width="62.56" height="3.72" rx="1.85" ry="1.85"></rect><rect class="cls-1" x="165.25" y="305.81" width="62.56" height="3.72" rx="1.85" ry="1.85"></rect><path class="cls-8" d="M168.24,287.51h94.7c1.65,0,2.99,1.34,2.99,2.99h0c0,1.65-1.34,2.99-2.99,2.99h-94.7c-1.65,0-2.99-1.34-2.99-2.99h0c0-1.65,1.34-2.99,2.99-2.99Z"></path><rect class="cls-1" x="165.25" y="327.97" width="62.56" height="3.72" rx="1.85" ry="1.85"></rect><rect class="cls-1" x="165.25" y="337.06" width="62.56" height="3.72" rx="1.85" ry="1.85"></rect><path class="cls-8" d="M168.24,318.76h94.7c1.65,0,2.99,1.34,2.99,2.99h0c0,1.65-1.34,2.99-2.99,2.99h-94.7c-1.65,0-2.99-1.34-2.99-2.99h0c0-1.65,1.34-2.99,2.99-2.99Z"></path></g><g id="search_bar"><rect class="cls-3" x="140.06" y="232.04" width="158.38" height="9.95"></rect><path class="cls-8" d="M116.37,206.95h192.9c7.14,0,12.94,5.79,12.94,12.94h0c0,7.14-5.79,12.94-12.94,12.94H116.37v-25.87h0Z"></path><rect class="cls-5" x="116.37" y="206.95" width="155.77" height="25.86"></rect><circle class="cls-9" cx="295.26" cy="218.42" r="6.24"></circle><path class="cls-9" d="M300.97,228.57l-2.55-4.76"></path></g><g id="character"><g class="cls-10"><path class="cls-2" d="M278.13,169.16c6.9,0,13.75,1.06,20.32,3.18v-9.33c-40.11-11.21-81.72,12.22-92.94,52.33-11.21,40.11,12.22,81.72,52.33,92.94,13.28,3.71,27.32,3.71,40.6,0v-9.33c-34.96,11.22-72.39-8.03-83.61-42.99-11.22-34.96,8.03-72.39,42.99-83.61,6.56-2.11,13.42-3.18,20.31-3.18h0Z"></path></g><path class="cls-8" d="M282.15,307.42c-41.65,0-75.42-33.77-75.42-75.42,0-41.65,33.77-75.42,75.42-75.42,41.65,0,75.42,33.77,75.42,75.42,0,.03,0,.05,0,.08-.09,41.6-33.82,75.29-75.42,75.34ZM282.15,165.53c-36.72,0-66.48,29.76-66.48,66.48,0,36.72,29.76,66.48,66.48,66.48,36.69,0,66.44-29.72,66.48-66.4-.01-36.72-29.76-66.48-66.48-66.52v-.04Z"></path><path class="cls-8" d="M384.29,343.75c-2.05,0-4.02-.82-5.47-2.29l-49.42-50.15c-2.98-3.01-2.96-7.86.05-10.84,3.01-2.98,7.86-2.96,10.84.05.01.01.02.02.03.03l49.42,50.15c2.97,3.01,2.93,7.87-.08,10.84-1.43,1.41-3.36,2.2-5.37,2.2h0Z"></path><path class="cls-4" d="M407.97,359.69c-3.54,3.5-9.25,3.47-12.75-.07,0,0-.01-.01-.02-.02l-58.18-59.05c-.32-.32-.62-.67-.88-1.05-.15-.2-.29-.41-.42-.61-.85-1.43-.71-3.24.36-4.52,1.13-1.35,2.36-2.6,3.69-3.75,1.52-1.35,3.17-2.55,4.93-3.59,1.47-.88,3.34-.72,4.64.4h0c.18.14.34.29.5.45l58.28,59.06c3.48,3.56,3.42,9.27-.13,12.75,0,0,0,0,0,0Z"></path><path class="cls-8" d="M402.08,399.91c1.12,1.4,1.27,3.34.38,4.89-.93,1.49-2.72,2.2-4.42,1.78-.29-.07-.56-.21-.79-.41-.47-.46-.55-1.28-1-1.74-.47-.38-1.03-.63-1.62-.72-1.06-.39-2.05-.92-2.95-1.6-.15-.08-.27-.2-.37-.33-.09-.17-.14-.36-.14-.55-.22-.98-.07-2.01.42-2.89.27-.33.6-.6.97-.8.7-.44,1.51-.68,2.34-.7.64.04,1.28.19,1.88.43,1.7.49,3.29,1.28,4.7,2.35"></path><path class="cls-6" d="M398.77,392.09l2.85,9.81s-.54,2.46-3.55,1.43-5.54-8.76-5.54-8.76l6.24-2.48Z"></path><path class="cls-8" d="M368.71,412.59c-.78-.13-1.56-.19-2.35-.17-.8.03-1.54.39-2.07,1-.77,1.24-.53,2.86.56,3.83,1.07.89,2.38,1.43,3.77,1.56.84.19,1.71.19,2.55,0,1.06-.31,2.07-1.19,3.13-.86.46.19.89.46,1.28.78,1.5,1.09,3.59.83,4.78-.6.31-.46.53-.97.65-1.51.45-1.7.24-3.83-1.16-4.81-1.66-1.19-2.95-.37-4.55.18-2.13.66-4.38.87-6.59.6Z"></path><path class="cls-6" d="M370.09,403.08l4.16,10.22s2.39,1.44,4.09.8l1.67-.69-1.47-14.26-8.45,3.93Z"></path><path class="cls-6" d="M339.15,299.24c-.28-.37-.65-.78-1.1-.72s-.52.24-.79.17c-.17-.06-.31-.17-.41-.32-.64-.67-1.34-1.28-2.11-1.8-.47-.41-1.03-.7-1.63-.83-.9-.05-1.75.46-2.13,1.28-.38.8-.48,1.7-.27,2.55.23.86.57,1.68,1.02,2.44.27.57.62,1.1,1.03,1.58,1.28,1.39,3.4,1.62,5.11,2.48.18.11.39.18.6.2.37-.06.69-.29.86-.63.66-.94,1.06-2.04,1.16-3.19-.09-1.19-.56-2.32-1.34-3.22Z"></path><path class="cls-6" d="M355.75,288.17c-.21-.06-.42-.03-.61.06-.11.08-.2.18-.28.29-.36.38-.94.4-1.43.61-.63.32-1.09.89-1.28,1.57-.17.67-.24,1.36-.22,2.06-.03.37,0,.73.11,1.09.12.35.43.6.79.64.29-.05.57-.17.8-.34.49-.27,1.05-.36,1.6-.26.7.23,1.37.54,1.99.93.65.38,1.45.38,2.09,0,.28-.25.51-.57.65-.92.57-1.28,1.28-2.69,0-3.73-1.2-1.04-2.66-1.74-4.23-2Z"></path><path class="cls-4" d="M393.7,335.09c-.3,5.37-.9,10.72-1.8,16.03-1.15,5.26-1.84,11.24-1.84,11.24l10.64,30.65s-6.47,4.3-10.64,2.63c-4.16-1.67-14.7-25.17-14.7-25.17l-4.01-26.73,10.61-12.18,11.74,3.54Z"></path><path class="cls-4" d="M364.35,332.96s-7.59,24.86-7.59,31.32,9.09,38.31,9.09,38.31c0,0,9.87,3.35,12.18,0l2.31-3.35-5.55-32.05s7.87-16.73,9.26-21.03c.84-2.65,1.44-5.37,1.8-8.13l-21.5-5.07Z"></path><path class="cls-6" d="M367.54,264.86c-.89,1.77-1.45,3.69-1.67,5.66-.2,1.98.66,3.93,2.26,5.11.48.23.93.52,1.34.87,1.43,1.46-.2,4.1.61,5.99.68,1.26,2.2,1.81,3.52,1.28,1.27-.6,2.21-1.74,2.55-3.1.37-1.37.53-2.78.49-4.2l.14-8.44c.2-1.88-.09-3.78-.86-5.5-1.04-1.82-3.02-2.89-5.11-2.76-1.97.42-2.57,3.46-3.28,5.11Z"></path><path class="cls-8" d="M338.09,307s16.19,14.47,17.34,14.47,8.34-9.09,8.34-9.09l.57,20.57c2,1.18,4.08,2.21,6.23,3.09,3.5,1.43,7.93,2.76,11.8,2.4,7.87-.72,11.33-3.35,11.33-3.35l-4.84-48.45s-9.17-6.6-12.3-5.59c-2.24.4-4.54.4-6.78,0-4.52-.59-9.14,5.59-9.14,5.59l-6.01,19.75-14.11-5.01c-1.89,1.19-2.85,3.42-2.43,5.61Z"></path><path class="cls-7" d="M368.91,255.71c1.7-1.55,5.54-2.18,7.42-2.39,2.92-.42,5.88.45,8.11,2.38,3.06,2.91,3.38,7.66,3.35,12.03-.04,4.37-.1,9.05,2.45,12.37,2.2,2.83,5.78,4.01,8.58,6.19,2.79,2.07,4.56,5.24,4.85,8.71.65,13.13-19.4,7.5-26.02,4.57-1.17-.45-2.25-1.12-3.18-1.97-.98-1.06-1.7-2.33-2.11-3.72-1.56-4.69-1.29-9.8.74-14.3.31-.66.64-1.49.22-2.08-.23-.26-.52-.46-.84-.59-1.73-.72-2.88-2.38-2.95-4.25.27-1.35.88-2.6,1.76-3.65.88-1.07,1.17-2.5.79-3.83-.46-1.03-1.56-1.55-2.38-2.3-1.43-1.28-2.46-4.71-1.28-6.55.14-.23.3-.44.49-.63Z"></path></g><g id="bubble"><path class="cls-3" d="M198.75,154.68v26c0,7.1-5.74,12.86-12.83,12.88h-45.84v-51.77h45.84c7.1.03,12.83,5.79,12.83,12.88Z"></path><rect class="cls-5" x="85.43" y="134.97" width="111.1" height="51.77" rx="12.88" ry="12.88"></rect><circle class="cls-8" cx="192.63" cy="136.53" r="9.28"></circle><rect class="cls-8" x="107.37" y="151.5" width="65.43" height="5.12" rx="2.55" ry="2.55"></rect><rect class="cls-8" x="107.37" y="165.13" width="65.43" height="5.12" rx="2.55" ry="2.55"></rect></g></svg>