<svg transform="scale(1)" id="_0703_Coding_8" xmlns="http://www.w3.org/2000/svg" xmlns:xlink="http://www.w3.org/1999/xlink" viewBox="0 0 500 500" class="show_show__wrapper__graphic__5Waiy "><title>React</title><defs><style>.cls-1{fill:url(#linear-gradient);}.cls-1,.cls-2,.cls-3,.cls-4,.cls-5,.cls-6,.cls-7,.cls-8,.cls-9,.cls-10,.cls-11,.cls-12{stroke-width:0px;}.cls-2{isolation:isolate;opacity:.18;}.cls-2,.cls-3,.cls-12{fill:#68e1fd;}.cls-13{opacity:.31;}.cls-14{opacity:.56;}.cls-3{opacity:.28;}.cls-4{fill:url(#linear-gradient-4);}.cls-5{fill:url(#linear-gradient-2);}.cls-6{fill:url(#linear-gradient-3);}.cls-7{fill:url(#linear-gradient-5);}.cls-8{fill:url(#linear-gradient-6);}.cls-9{fill:#f4bdad;}.cls-10{fill:#473f47;}.cls-11{fill:#fff;}</style><linearGradient id="linear-gradient" x1="1885.98" y1="228.48" x2="2055.59" y2="253.06" gradientTransform="translate(-1294.59 -876.05) rotate(30.97)" gradientUnits="userSpaceOnUse"><stop offset="0" stop-color="#000"></stop><stop offset=".08" stop-color="#000" stop-opacity=".69"></stop><stop offset=".21" stop-color="#000" stop-opacity=".32"></stop><stop offset="1" stop-color="#000" stop-opacity="0"></stop></linearGradient><linearGradient id="linear-gradient-2" x1="2408.25" y1="254.31" x2="2381.12" y2="272.95" gradientTransform="translate(-2144.49)" gradientUnits="userSpaceOnUse"><stop offset="0" stop-color="#000"></stop><stop offset=".08" stop-color="#000" stop-opacity=".69"></stop><stop offset=".21" stop-color="#000" stop-opacity=".32"></stop><stop offset="1" stop-color="#000" stop-opacity="0"></stop></linearGradient><linearGradient id="linear-gradient-3" x1="3164.6" y1="219.59" x2="3574.79" y2="380.03" gradientTransform="translate(-3021.15 -387.7) rotate(8.32)" xlink:href="#linear-gradient"></linearGradient><linearGradient id="linear-gradient-4" x1="246.18" y1="289.17" x2="426.45" y2="452.43" gradientTransform="matrix(1,0,0,1,0,0)" xlink:href="#linear-gradient-2"></linearGradient><linearGradient id="linear-gradient-5" x1="-1751.44" y1="446.67" x2="-1846.89" y2="260.07" gradientTransform="translate(-1462.36) rotate(-180) scale(1 -1)" xlink:href="#linear-gradient-2"></linearGradient><linearGradient id="linear-gradient-6" x1="-1637.32" y1="315.28" x2="-1653.63" y2="283.39" gradientTransform="translate(-808.8 -811.14) rotate(-145.05) scale(1 -.96) skewX(7.35)" xlink:href="#linear-gradient-2"></linearGradient></defs><path class="cls-2" d="M475.17,391.08c-11.17,19.83-26.52,37.01-44.61,48.47-11.98,7.58-24.63,13.71-37.88,18.38-4.25,1.51-8.55,2.86-12.92,4.06-2.03.57-4.07,1.1-6.12,1.59-10.61,2.55-21.36,4.32-32.19,5.51-6.07.67-12.17,1.16-18.28,1.5-11.17.64-22.38.79-33.56.68-2.38-.02-4.76-.05-7.13-.09-.85-.02-1.7-.03-2.55-.05-1.66-.03-3.31-.07-4.96-.12-5.9-.15-11.81-.37-17.71-.69-39.31-2.04-78.55-7.93-114.55-23.47-13.72-5.93-26.81-13.2-39.37-21.31-3.26-2.1-6.49-4.26-9.68-6.47-3.6-2.48-7.15-5.02-10.66-7.62-8.27-6.12-16.39-12.55-24.04-19.46-11.73-10.59-22.37-22.29-30.8-35.63-20.83-32.94-26.52-75.05-15.19-112.34,11.33-37.3,39.48-69.12,75.12-84.91,16.11-7.15,33.64-11.17,48.88-20.03,21.58-12.55,36.75-33.65,56.66-48.71,25.36-19.17,57.79-27.73,89.57-27.27,31.79.46,63.01,9.48,91.94,22.64,17.6,8.01,34.84,17.84,47.59,32.37,23.54,26.86,28.06,64.81,40.12,98.43,9.61,26.78,24.53,51.84,30.04,79.76,6.08,30.86-1.32,65.68-17.72,94.78Z"></path><path class="cls-3" d="M376.46,235.79h-44.55l-9.12,13.14-.93-13.14h-13.29c-5.34,0-9.67-4.33-9.67-9.67v-31.51c0-5.34,4.33-9.67,9.67-9.67h67.88c5.34,0,9.67,4.33,9.67,9.67v31.51c0,5.34-4.33,9.67-9.67,9.67Z"></path><path class="cls-11" d="M317.11,209.39l16.8-8.65v2.5l-14.16,7.1v.07l14.16,7.1v2.5l-16.8-8.65v-1.96Z"></path><path class="cls-11" d="M336.89,223.49l10.1-26.25h2.46l-10.14,26.25h-2.43Z"></path><path class="cls-11" d="M367.92,211.38l-16.8,8.62v-2.5l14.26-7.1v-.07l-14.26-7.1v-2.5l16.8,8.62v2.03Z"></path><g id="character_2"><path class="cls-9" d="M258.63,323.2c-.7-1.18-1.53-2.48-2.87-2.75-.75-.15-1.52.05-2.24.3-6.81,2.33-11.83,8.57-13.89,15.47-.88,2.96-1.28,6.16-.42,9.12.85,2.96,2.86,5.42,4.82,7.8,2.14,2.6,4.33,5.17,6.44,7.79,1.51,1.89,2.54,5.18,4.42,6.47,5.99,4.11,13.08,6.46,20.27,7.47,4.5.63,9.3.71,13.34-1.39s6.92-6.93,5.51-11.25c-.98-2.99-3.66-5.03-6.19-6.89-3.34-2.44-7.55-4.71-10.46-7.65-2.23-2.25-3.8-5.33-5.77-7.87-4.29-5.53-9.36-10.59-12.95-16.63Z"></path><path class="cls-12" d="M245.23,289.17c4.33,7.42,8.66,14.84,13,22.26,3.16,5.41,6.31,10.81,9.47,16.22,2.15,3.68,5.14,7.31,5.25,11.52.33,12.23-9.71,18.22-20.9,18.79-1.23.06-2.48.07-3.69-.16-5.83-1.07-9.95-6.65-11.7-11.93-.8-2.39-2.35-5.1-2.45-7.62-.09-2.34,1.11-4.56,1.61-6.79,2.72-12.25,5.45-24.5,8.17-36.75.41-1.85.82-3.7,1.24-5.55Z"></path><path class="cls-1" d="M244.55,288.77c4.33,7.42,8.66,14.84,13,22.26,3.16,5.41,6.31,10.81,9.47,16.22,2.15,3.68,5.14,7.31,5.25,11.52.33,12.23-9.71,18.22-20.9,18.79-1.23.06-2.48.07-3.69-.16-5.83-1.07-9.95-6.65-11.7-11.93-.8-2.39-2.35-5.1-2.45-7.62-.09-2.34,1.11-4.56,1.61-6.79,2.72-12.25,5.45-24.5,8.17-36.75.41-1.85.82-3.7,1.24-5.55Z"></path><path class="cls-9" d="M281.91,258.96c-.51,3.36-4.02,5.21-6.52,7.48-3.5,3.18-5.41,7.82-8.89,11.03-.73.68-1.58,1.32-2.56,1.47-.86.15-1.71-.06-2.52-.3-3.25-.94-6.35-2.37-9.17-4.21-.39-.26-.79-.51-1.2-.64-.21-.06-.43-.09-.66-.06-.66.09-1.15.6-1.58,1.09-1.22,1.39-2.35,2.84-3.4,4.36-3.91,5.56-6.75,11.86-8.33,18.46-.66,2.78-1.54,6.11-4.27,6.92-.96.28-1.97.17-2.93-.09-6.37-1.62-9.57-8.7-11.03-15.11-1.3-5.73-1.94-11.6-1.88-17.48.02-1.67.11-3.36.7-4.92.75-1.99,2.29-3.59,3.74-5.15,4.89-5.3,9.25-11.09,12.97-17.27,4.77-7.91,8.7-16.69,15.86-22.55,2.37-1.97,5.21-3.59,8.31-3.72,3.4-.13,6.58,1.56,9.51,3.27,5.79,3.4,11.86,7.67,13.57,14.17.49,1.86-1.54,11.52-1.37,15,.13,2.82,2.05,5.43,1.65,8.23Z"></path><path class="cls-5" d="M251.05,273.79c-.21-.06-.43-.09-.66-.06-.66.09-1.15.6-1.58,1.09-1.22,1.39-2.35,2.84-3.4,4.36l-.06.06c-4.92-6.41-1.38-23.6-1.38-23.6,1.79,14.61,6.75,17.72,7.09,18.15Z"></path><path class="cls-12" d="M240.39,400.01c-3.63,1.43-7.44,2.18-12.58,2.18-21.46.23-42.92-.03-64.37-.77-3.37-14.38-3.93-29.41-1.65-44,1.46-9.35,4.76-19.05,4.47-28.6-.26-8.38.16-16.12,2.01-24.46,2.55-11.48,5.49-24.12,13.82-32.93,11.66-12.33,26.16-8.94,40.43-3.25.87.35,1.75.7,2.47,1.29,1.17.95,1.81,2.39,2.48,3.75,1.84,3.77,4.34,7.49,8.13,9.29,2.77,1.31,6.05,1.63,8.34,3.83,2.07,1.99,3.54,5.38,4.92,7.87,6.6,11.89,5.36,26.07,6.24,39.3,1.04,15.66,2.07,31.32,3.11,46.98.19,2.82.34,5.81-1,8.3-1.24,2.32-3.57,3.81-5.8,5.2-4.17,2.61-7.51,4.63-11.02,6.01Z"></path><path class="cls-6" d="M206.04,400.1c-5.79.96-11.52,1.52-17.51,1.77-2.57.11-24.05,1.71-24.76-.16-3.15-8.22-2.53-17.34-1.86-26.12,1.78-23.38,1.28-48.29,6.37-71.21,4.13-4.18,7.88-8.24,10-12.13,1.98-3.53,5.01-7.32,9.08-7.02,3.57.27,6.05,3.65,7.86,6.77,7,12.07,13.08,24.23,15.38,37.91,2.07,12.31,11.4,21.65,21.18,29,9.85,7.4,20.82,13.26,30.27,21.17,1.56,1.3,3.22,3.3,2.34,5.13-.59,1.22-2.04,1.69-3.35,2.04-16.34,4.37-32.79,8.31-49.33,11.8-1.9.4-3.78.76-5.66,1.07Z"></path><path class="cls-9" d="M178.19,374.18c9.15,2,18.37,3.71,27.5,5.82,5.39,1.25,10.96,2.64,16.4,1.63,3.56-.66,6.86-2.33,10.34-3.34s7.47-1.28,10.52.68c1.02.66,1.91,1.55,3.03,2.03s2.63.4,3.31-.61c.76-1.14.06-2.67-.73-3.79-7.24-10.27-19.14-11.43-30.7-11.5-11.92-.07-22.37-3.48-32.77-8.92-1.28-.67-17.4-9.14-17.79-8.19.74-1.86,2.19-3.34,3.21-5.06,1.02-1.72,1.59-4,.48-5.67-.8-1.21-2.26-1.78-3.64-2.24-4.47-1.5-9.06-2.62-13.71-3.36-2.86-.45-5.82-.75-8.61.03-5.16,1.44-6.68,5.9-9.48,9.82-2.13,2.97-3.57,6.87-3.41,10.57.14,3.31,2.64,5.94,5.23,7.92,8.8,6.7,21.35,9.49,31.91,12.12,2.96.74,5.93,1.42,8.91,2.07Z"></path><path class="cls-12" d="M204.23,301.52c-2.52,4.2-5.43,8.21-8.1,12.2-5.12,7.64-10.21,15.31-15.05,23.13-1.95,3.15-5.34,7.23-5.98,10.99-.82,4.79-39.22-13.36-39.22-13.36,6.67-13.11,14.23-25.95,22.8-37.9,3.23-4.5,6.65-8.89,10.51-12.88,5.01-5.19,8.35-11.45,14.46-15.76,5.14-3.63,11.63-5.76,17.79-4.47,1.4.29,2.79.77,3.92,1.65,1.37,1.05,2.27,2.6,2.98,4.18,2.51,5.59,2.99,11.99,1.8,18-1.01,5.09-3.24,9.77-5.91,14.23Z"></path><path class="cls-10" d="M280.59,236.48c-.23-.15-.53-.16-.89.02-1.73.88-3.13,2.44-4.97,3.28-3.57,1.64-7.28,1.86-11.15,1.51-1.04-.09-2.1-.21-3.12,0-.58.12-1.13.35-1.7.5-2.71.71-5.6-.38-8.37.05-1.68,3.18-3.62,6.23-5.78,9.11-1.23-1.16-.34-2.68-.61-4.05s-1.97-2.36-3.31-2.46c-1.49-.12-2.97.52-4.16,1.42-.61.46-1.18,1.01-1.54,1.69-1.07,1.95-.22,4.47,1.3,6.09-3.61.33-7.17,1.24-10.5,2.67.98-1.76,1.31-3.87.9-5.84,0-2.24-2.17-5.24-3.08-7.25-.12-.25-.24-.52-.48-.67-1.63-4.5-2.88-9.31-2.16-14.05s3.81-9.37,8.42-10.67c1.31-.37,2.75-.49,3.83-1.31.72-.56,1.2-1.37,1.71-2.12,2.72-4,6.99-6.76,11.56-8.33s9.45-2.05,14.28-2.18c3.91-.11,7.9.01,11.6,1.29,3.38,1.16,6.37,3.24,9.01,5.65,1.66,1.52,3.21,3.2,4.19,5.22.98,2.02,1.32,4.43.52,6.53-.18.48-.42.96-.39,1.47.09,1.41,1.94,1.81,3,2.74,1.11.98,1.34,2.62,1.23,4.1-.21,2.78-1.42,5.43-3.27,7.5-1.11,1.24-5.88,5.46-5.32,1.7.14-.97.06-3.09-.74-3.6Z"></path><path class="cls-9" d="M272.28,354.43l-7.65-62.88s-5.47-9.43-4.34-11.16c1.13-1.74,3.98-.84,4.87-.47s8.9-11.81,11.78-10.98,2.33,7.44,2.33,7.44c0,0,4.84,4.72,5.12,8.82s-5.77,9.97-5.77,9.97c0,0,21.61,63.06,15.66,70.51-5.95,7.44-17.07,8.1-22-11.25Z"></path></g><g id="laptop"><path class="cls-12" d="M378.02,388.54l38.2-88.95c1.35-3.14-.96-6.65-4.38-6.65h-111.94c-1.87,0-3.56,1.09-4.34,2.79l-38.01,83.37c-.77,1.7-2.47,2.79-4.34,2.79h-55.62c-2.58,0-4.7,2.06-4.76,4.64h0c-.07,2.68,2.08,4.89,4.76,4.89h176.04c1.91,0,3.63-1.13,4.38-2.89Z"></path><path class="cls-4" d="M378.02,388.54l38.2-88.95c1.35-3.14-.96-6.65-4.38-6.65h-111.94c-1.87,0-3.56,1.09-4.34,2.79l-38.01,83.37c-.77,1.7-2.47,2.79-4.34,2.79h-55.62c-2.58,0-4.7,2.06-4.76,4.64h0c-.07,2.68,2.08,4.89,4.76,4.89h176.04c1.91,0,3.63-1.13,4.38-2.89Z"></path><path class="cls-7" d="M265.55,385.52l42.31-90.15c.69-1.48,2.2-2.42,3.86-2.42h100.65c3.04,0,5.09,3.04,3.91,5.79l-38.13,88.39c-.65,1.52-2.16,2.51-3.84,2.54l-104.83,1.75c-3.13.05-5.24-3.12-3.93-5.91Z"></path><ellipse class="cls-8" cx="345.15" cy="344.75" rx="13.8" ry="12.03" transform="translate(-135.25 259.92) rotate(-34.95)"></ellipse></g><path class="cls-12" d="M475.17,391.08c-11.17,19.83-26.52,37.01-44.61,48.47-11.98,7.58-24.63,13.71-37.88,18.38-4.25,1.51-8.55,2.86-12.92,4.06-2.03.57-4.07,1.1-6.12,1.59-10.61,2.55-21.36,4.32-32.19,5.51-6.07.67-12.17,1.16-18.28,1.5-11.17.64-22.38.79-33.56.68-2.38-.02-4.76-.05-7.13-.09-.85-.02-1.7-.03-2.55-.05-1.66-.03-3.31-.07-4.96-.12-5.9-.15-11.81-.37-17.71-.69-39.31-2.04-78.55-7.93-114.55-23.47-13.72-5.93-26.81-13.2-39.37-21.31-3.26-2.1-6.49-4.26-9.68-6.47-3.6-2.48-7.15-5.02-10.66-7.62-8.27-6.12-16.39-12.55-24.04-19.46v-.91h416.21Z"></path><rect class="cls-2" x="60.58" y="104.19" width="158.17" height="135.95" rx="7.73" ry="7.73"></rect><g class="cls-13"><path class="cls-12" d="M83.14,133.8h-8.67c-.93,0-1.66-.76-1.63-1.69h0c.03-.93.81-1.69,1.74-1.69h8.67c.93,0,1.66.76,1.63,1.69h0c-.03.93-.81,1.69-1.74,1.69Z"></path><path class="cls-12" d="M131.88,133.8h-38.64c-.93,0-1.66-.76-1.63-1.69h0c.03-.93.81-1.69,1.74-1.69h38.64c.93,0,1.66.76,1.63,1.69h0c-.03.93-.81,1.69-1.74,1.69Z"></path><path class="cls-12" d="M82.52,152.14h-8.67c-.93,0-1.66-.76-1.63-1.69h0c.03-.93.81-1.69,1.74-1.69h8.67c.93,0,1.66.76,1.63,1.69h0c-.03.93-.81,1.69-1.74,1.69Z"></path><path class="cls-12" d="M131.27,152.14h-38.64c-.93,0-1.66-.76-1.63-1.69h0c.03-.93.81-1.69,1.74-1.69h38.64c.93,0,1.66.76,1.63,1.69h0c-.03.93-.81,1.69-1.74,1.69Z"></path><path class="cls-12" d="M82.83,142.97h-8.67c-.93,0-1.66-.76-1.63-1.69h0c.03-.93.81-1.69,1.74-1.69h8.67c.93,0,1.66.76,1.63,1.69h0c-.03.93-.81,1.69-1.74,1.69Z"></path><path class="cls-12" d="M150.66,133.8h-8.67c-.93,0-1.66-.76-1.63-1.69h0c.03-.93.81-1.69,1.74-1.69h8.67c.93,0,1.66.76,1.63,1.69h0c-.03.93-.81,1.69-1.74,1.69Z"></path><path class="cls-12" d="M113.4,142.97h-20.46c-.93,0-1.66-.76-1.63-1.69h0c.03-.93.81-1.69,1.74-1.69h20.46c.93,0,1.66.76,1.63,1.69h0c-.03.93-.81,1.69-1.74,1.69Z"></path><path class="cls-12" d="M151.53,142.97h-28.02c-.93,0-1.66-.76-1.63-1.69h0c.03-.93.81-1.69,1.74-1.69h28.02c.93,0,1.66.76,1.63,1.69h0c-.03.93-.81,1.69-1.74,1.69Z"></path><path class="cls-12" d="M188.79,133.8h-28.02c-.93,0-1.66-.76-1.63-1.69h0c.03-.93.81-1.69,1.74-1.69h28.02c.93,0,1.66.76,1.63,1.69h0c-.03.93-.81,1.69-1.74,1.69Z"></path><path class="cls-12" d="M109.44,168.06h-8.67c-.93,0-1.66-.76-1.63-1.69h0c.03-.93.81-1.69,1.74-1.69h8.67c.93,0,1.66.76,1.63,1.69h0c-.03.93-.81,1.69-1.74,1.69Z"></path><path class="cls-12" d="M158.19,168.06h-38.64c-.93,0-1.66-.76-1.63-1.69h0c.03-.93.81-1.69,1.74-1.69h38.64c.93,0,1.66.76,1.63,1.69h0c-.03.93-.81,1.69-1.74,1.69Z"></path><path class="cls-12" d="M108.83,186.4h-8.67c-.93,0-1.66-.76-1.63-1.69h0c.03-.93.81-1.69,1.74-1.69h8.67c.93,0,1.66.76,1.63,1.69h0c-.03.93-.81,1.69-1.74,1.69Z"></path><path class="cls-12" d="M157.57,186.4h-38.64c-.93,0-1.66-.76-1.63-1.69h0c.03-.93.81-1.69,1.74-1.69h38.64c.93,0,1.66.76,1.63,1.69h0c-.03.93-.81,1.69-1.74,1.69Z"></path><path class="cls-12" d="M206.32,186.4h-38.64c-.93,0-1.66-.76-1.63-1.69h0c.03-.93.81-1.69,1.74-1.69h38.64c.93,0,1.66.76,1.63,1.69h0c-.03.93-.81,1.69-1.74,1.69Z"></path><path class="cls-12" d="M109.13,177.23h-8.67c-.93,0-1.66-.76-1.63-1.69h0c.03-.93.81-1.69,1.74-1.69h8.67c.93,0,1.66.76,1.63,1.69h0c-.03.93-.81,1.69-1.74,1.69Z"></path><path class="cls-12" d="M176.96,168.06h-8.67c-.93,0-1.66-.76-1.63-1.69h0c.03-.93.81-1.69,1.74-1.69h8.67c.93,0,1.66.76,1.63,1.69h0c-.03.93-.81,1.69-1.74,1.69Z"></path><path class="cls-12" d="M139.7,177.23h-20.46c-.93,0-1.66-.76-1.63-1.69h0c.03-.93.81-1.69,1.74-1.69h20.46c.93,0,1.66.76,1.63,1.69h0c-.03.93-.81,1.69-1.74,1.69Z"></path><path class="cls-12" d="M177.83,177.23h-28.02c-.93,0-1.66-.76-1.63-1.69h0c.03-.93.81-1.69,1.74-1.69h28.02c.93,0,1.66.76,1.63,1.69h0c-.03.93-.81,1.69-1.74,1.69Z"></path><path class="cls-12" d="M92.99,211.73h-8.67c-.93,0-1.66-.76-1.63-1.69h0c.03-.93.81-1.69,1.74-1.69h8.67c.93,0,1.66.76,1.63,1.69h0c-.03.93-.81,1.69-1.74,1.69Z"></path><path class="cls-12" d="M141.74,211.73h-38.64c-.93,0-1.66-.76-1.63-1.69h0c.03-.93.81-1.69,1.74-1.69h38.64c.93,0,1.66.76,1.63,1.69h0c-.03.93-.81,1.69-1.74,1.69Z"></path><path class="cls-12" d="M190.48,211.73h-38.64c-.93,0-1.66-.76-1.63-1.69h0c.03-.93.81-1.69,1.74-1.69h38.64c.93,0,1.66.76,1.63,1.69h0c-.03.93-.81,1.69-1.74,1.69Z"></path><path class="cls-12" d="M93.3,202.56h-8.67c-.93,0-1.66-.76-1.63-1.69h0c.03-.93.81-1.69,1.74-1.69h8.67c.93,0,1.66.76,1.63,1.69h0c-.03.93-.81,1.69-1.74,1.69Z"></path><path class="cls-12" d="M123.87,202.56h-20.46c-.93,0-1.66-.76-1.63-1.69h0c.03-.93.81-1.69,1.74-1.69h20.46c.93,0,1.66.76,1.63,1.69h0c-.03.93-.81,1.69-1.74,1.69Z"></path><path class="cls-12" d="M162,202.56h-28.02c-.93,0-1.66-.76-1.63-1.69h0c.03-.93.81-1.69,1.74-1.69h28.02c.93,0,1.66.76,1.63,1.69h0c-.03.93-.81,1.69-1.74,1.69Z"></path></g><path class="cls-12" d="M218.75,111.92v7.16H60.58v-7.16c0-4.27,3.46-7.73,7.73-7.73h142.71c4.27,0,7.73,3.46,7.73,7.73Z"></path><rect class="cls-11" x="208" y="108.12" width="2.23" height="6.42" rx="1.12" ry="1.12" transform="translate(-17.48 180.47) rotate(-45)"></rect><rect class="cls-11" x="208" y="108.12" width="2.23" height="6.42" rx="1.12" ry="1.12" transform="translate(139.97 -115.26) rotate(45)"></rect><polygon class="cls-11" points="343.18 159.24 279.07 159.24 279.07 84.25 325.51 84.25 343.18 99.82 343.18 159.24"></polygon><polygon class="cls-12" points="325.05 100.59 343.18 100.59 343.18 99.82 325.51 84.25 325.05 100.59"></polygon><g class="cls-14"><path class="cls-12" d="M317.51,138.95c-1.3.65-3.9,1.3-7.23,1.3-7.72,0-13.53-4.88-13.53-13.86s5.81-14.39,14.3-14.39c3.41,0,5.57.73,6.5,1.22l-.85,2.88c-1.34-.65-3.25-1.14-5.53-1.14-6.42,0-10.69,4.1-10.69,11.3,0,6.71,3.86,11.01,10.53,11.01,2.15,0,4.35-.45,5.77-1.14l.73,2.8Z"></path><path class="cls-12" d="M320.79,120.58v4.9h4.72v1.25h-4.72v4.95h-1.34v-4.95h-4.72v-1.25h4.72v-4.9h1.34Z"></path></g></svg>