<?xml version="1.0" encoding="UTF-8"?>
<svg id="Capa_1" xmlns="http://www.w3.org/2000/svg" xmlns:xlink="http://www.w3.org/1999/xlink" viewBox="0 0 500 500">
  <defs>
    <style>
      .cls-1 {
        fill: url(#Degradado_sin_nombre_6);
      }

      .cls-2 {
        opacity: .42;
      }

      .cls-2, .cls-3, .cls-4, .cls-5 {
        fill: #68e1fd;
      }

      .cls-2, .cls-4, .cls-6, .cls-5 {
        isolation: isolate;
      }

      .cls-7 {
        fill: url(#Degradado_sin_nombre_5);
      }

      .cls-8 {
        fill: url(#Degradado_sin_nombre_11);
      }

      .cls-4 {
        letter-spacing: -.09em;
      }

      .cls-4, .cls-5 {
        font-family: Roboto-Medium, Roboto;
        font-size: 11.14px;
        font-weight: 500;
      }

      .cls-9 {
        fill: #ffb4a3;
      }

      .cls-10 {
        fill: url(#Degradado_sin_nombre_4);
      }

      .cls-11 {
        fill: url(#Degradado_sin_nombre_2);
      }

      .cls-12 {
        fill: #fde2d1;
      }

      .cls-13 {
        fill: url(#Degradado_sin_nombre_9);
      }

      .cls-14 {
        fill: url(#Degradado_sin_nombre_13);
      }

      .cls-15 {
        fill: url(#Degradado_sin_nombre_7);
      }

      .cls-16 {
        fill: url(#Degradado_sin_nombre_3);
      }

      .cls-17 {
        fill: url(#Degradado_sin_nombre);
      }

      .cls-18 {
        fill: url(#Degradado_sin_nombre_10);
      }

      .cls-19 {
        fill: url(#Degradado_sin_nombre_14);
      }

      .cls-20 {
        fill: url(#Degradado_sin_nombre_15);
      }

      .cls-21 {
        fill: url(#Degradado_sin_nombre_8);
      }

      .cls-22 {
        fill: url(#Degradado_sin_nombre_12);
      }
    </style>
    <linearGradient id="Degradado_sin_nombre" data-name="Degradado sin nombre" x1="-974.43" y1="2612.01" x2="-944.1" y2="2394.5" gradientTransform="translate(2780.22 -734.03) rotate(-90) scale(1 -1)" gradientUnits="userSpaceOnUse">
      <stop offset="0" stop-color="#231f20" stop-opacity="0"/>
      <stop offset="1" stop-color="#231f20"/>
    </linearGradient>
    <linearGradient id="Degradado_sin_nombre_2" data-name="Degradado sin nombre 2" x1="-1005.09" y1="2779.63" x2="-1174.5" y2="2274.57" gradientTransform="translate(2781.71 -788.54) rotate(-90) scale(1 -1)" gradientUnits="userSpaceOnUse">
      <stop offset="0" stop-color="#231f20" stop-opacity="0"/>
      <stop offset="1" stop-color="#231f20"/>
    </linearGradient>
    <linearGradient id="Degradado_sin_nombre_3" data-name="Degradado sin nombre 3" x1="230.02" y1="445.29" x2="237.74" y2="517.67" gradientTransform="translate(-365.38 500.46) rotate(-90)" gradientUnits="userSpaceOnUse">
      <stop offset="0" stop-color="#231f20" stop-opacity="0"/>
      <stop offset="1" stop-color="#231f20"/>
    </linearGradient>
    <linearGradient id="Degradado_sin_nombre_4" data-name="Degradado sin nombre 4" x1="242.47" y1="443.96" x2="250.19" y2="516.34" gradientTransform="translate(-365.38 500.46) rotate(-90)" gradientUnits="userSpaceOnUse">
      <stop offset="0" stop-color="#231f20" stop-opacity="0"/>
      <stop offset="1" stop-color="#231f20"/>
    </linearGradient>
    <linearGradient id="Degradado_sin_nombre_5" data-name="Degradado sin nombre 5" x1="236.14" y1="444.64" x2="243.87" y2="517.02" gradientTransform="translate(-365.38 500.46) rotate(-90)" gradientUnits="userSpaceOnUse">
      <stop offset="0" stop-color="#231f20" stop-opacity="0"/>
      <stop offset="1" stop-color="#231f20"/>
    </linearGradient>
    <linearGradient id="Degradado_sin_nombre_6" data-name="Degradado sin nombre 6" x1="224" y1="445.93" x2="231.72" y2="518.31" gradientTransform="translate(-365.38 500.46) rotate(-90)" gradientUnits="userSpaceOnUse">
      <stop offset="0" stop-color="#231f20" stop-opacity="0"/>
      <stop offset="1" stop-color="#231f20"/>
    </linearGradient>
    <linearGradient id="Degradado_sin_nombre_7" data-name="Degradado sin nombre 7" x1="248.29" y1="443.34" x2="256.01" y2="515.73" gradientTransform="translate(-365.38 500.46) rotate(-90)" gradientUnits="userSpaceOnUse">
      <stop offset="0" stop-color="#231f20" stop-opacity="0"/>
      <stop offset="1" stop-color="#231f20"/>
    </linearGradient>
    <linearGradient id="Degradado_sin_nombre_8" data-name="Degradado sin nombre 8" x1="-1180.53" y1="2554.58" x2="-892.94" y2="2638.23" gradientTransform="translate(2780.22 -734.03) rotate(-90) scale(1 -1)" gradientUnits="userSpaceOnUse">
      <stop offset="0" stop-color="#231f20" stop-opacity="0"/>
      <stop offset="1" stop-color="#231f20"/>
    </linearGradient>
    <linearGradient id="Degradado_sin_nombre_9" data-name="Degradado sin nombre 9" x1="-1233.23" y1="2536.73" x2="-974.94" y2="2617.23" gradientTransform="translate(2780.22 -734.03) rotate(-90) scale(1 -1)" gradientUnits="userSpaceOnUse">
      <stop offset="0" stop-color="#231f20" stop-opacity="0"/>
      <stop offset="1" stop-color="#231f20"/>
    </linearGradient>
    <linearGradient id="Degradado_sin_nombre_10" data-name="Degradado sin nombre 10" x1="146.44" y1="454.2" x2="154.16" y2="526.59" gradientTransform="translate(-365.38 500.46) rotate(-90)" gradientUnits="userSpaceOnUse">
      <stop offset="0" stop-color="#231f20" stop-opacity="0"/>
      <stop offset="1" stop-color="#231f20"/>
    </linearGradient>
    <linearGradient id="Degradado_sin_nombre_11" data-name="Degradado sin nombre 11" x1="157.86" y1="452.99" x2="165.58" y2="525.37" gradientTransform="translate(-365.38 500.46) rotate(-90)" gradientUnits="userSpaceOnUse">
      <stop offset="0" stop-color="#231f20" stop-opacity="0"/>
      <stop offset="1" stop-color="#231f20"/>
    </linearGradient>
    <linearGradient id="Degradado_sin_nombre_12" data-name="Degradado sin nombre 12" x1="152.47" y1="453.57" x2="160.18" y2="525.95" gradientTransform="translate(-389.49 357.8) rotate(-73.91)" gradientUnits="userSpaceOnUse">
      <stop offset="0" stop-color="#231f20" stop-opacity="0"/>
      <stop offset="1" stop-color="#231f20"/>
    </linearGradient>
    <linearGradient id="Degradado_sin_nombre_13" data-name="Degradado sin nombre 13" x1="140.42" y1="454.85" x2="148.14" y2="527.23" gradientTransform="translate(-386.08 357.32) rotate(-73.91)" gradientUnits="userSpaceOnUse">
      <stop offset="0" stop-color="#231f20" stop-opacity="0"/>
      <stop offset="1" stop-color="#231f20"/>
    </linearGradient>
    <linearGradient id="Degradado_sin_nombre_14" data-name="Degradado sin nombre 14" x1="164.49" y1="452.28" x2="172.21" y2="524.66" gradientTransform="translate(-392.89 358.28) rotate(-73.91)" gradientUnits="userSpaceOnUse">
      <stop offset="0" stop-color="#231f20" stop-opacity="0"/>
      <stop offset="1" stop-color="#231f20"/>
    </linearGradient>
    <linearGradient id="Degradado_sin_nombre_15" data-name="Degradado sin nombre 15" x1="-884.38" y1="2405.2" x2="-934.07" y2="2322.85" gradientTransform="translate(2780.22 -734.03) rotate(-90) scale(1 -1)" gradientUnits="userSpaceOnUse">
      <stop offset="0" stop-color="#231f20" stop-opacity="0"/>
      <stop offset="1" stop-color="#231f20"/>
    </linearGradient>
  </defs>
  <g id="_0392_credit_card">
    <g id="background">
      <path class="cls-2" d="M378.44,69.42c27.43,8.8,53.51,24.44,71.95,46.2,2.51,2.98,4.88,6.07,7.12,9.27,3.76,5.4,7.03,11.12,9.78,17.1,1.88,4.1,3.52,8.31,4.89,12.61,1.96,6.06,3.45,12.27,4.47,18.55.21,1.16.39,2.33.54,3.5l.17,1.23c3.39,25.27.41,51.82-4.18,77.16-5.69,31.45-13.79,62.84-29.02,90.93-31.3,57.77-93.45,97.59-159.02,101.89-14.16.94-28.55.29-42.25-3.44-22.45-6.05-40.91-19.48-58.11-35.27-1.1-1-2.2-2.02-3.28-3.04-15.71-14.82-30.49-31.4-46.48-45.9-1.54-1.39-3.08-2.76-4.63-4.11-.23-.21-.46-.4-.7-.61l-.65-.55-.58-.5s-.09-.06-.12-.1c-.94-.77-1.83-1.53-2.75-2.26-2.27-1.88-4.6-3.66-6.97-5.35-.28-.2-.54-.39-.83-.58-.82-.58-1.64-1.15-2.47-1.7-1.35-.92-2.73-1.82-4.12-2.68-1.25-.78-2.53-1.54-3.83-2.27-.81-.46-1.63-.94-2.46-1.34-1.63-.88-3.28-1.71-4.95-2.48-2.1-1.01-4.26-1.93-6.44-2.82-1.24-.47-2.46-.94-3.66-1.49h0c-3.25-1.4-6.42-2.97-9.51-4.7-.08-.03-.16-.07-.24-.12C1.66,282.99-24.66,141.57,119.07,77.75c17.26-7.67,36.23-10.48,54.98-12.69,29.04-3.44,58.18-5.73,87.44-6.84,39.36-1.52,79.48-.8,116.97,11.22h0s0,0,0,0Z"/>
    </g>
    <g id="card_and_hand">
      <path class="cls-9" d="M212.11,207.63c4.46-4.6,10.11-7.83,15.66-11.02l41.36-23.65c7.63-4.36,15.39-8.78,23.94-10.83,7.52-1.81,15.39-1.69,23.14-1.58l46.06.71c7.7.12,15.91.39,22.27,4.75,9.54,6.58,11.46,19.89,10.34,31.41-2.18,22.7-13.5,45.13-32.62,57.54s-46.16,13.1-64.09-.99c-6.93-5.45-12.71-12.99-21.17-15.47-9.1-2.68-19.29,1.61-25.39,8.89-4.28,5.11-6.8,11.44-10.57,16.92s-9.47,10.46-16.13,10.34c-24.97-.25-25.43-54.01-12.81-67.03h.02Z"/>
      <path class="cls-17" d="M259.61,208.05c11.45.57,22.9-1.17,33.67-5.11-.64,4.17-4.13,7.18-7.01,10.26-2.88,3.08-5.46,7.43-3.83,11.29,3.7-2.11,7.98-2.99,12.22-2.53-5.13,1.33-9.23,7.14-7.23,12.05,1.27,3.09,4.4,4.96,6.51,7.52s2.71,7.25-.32,8.69c-8.4-11.2-23.16-15.35-36.99-17.58-9.96-1.61-42.61-2.47-41.09-17.95,1.71-17.29,33.67-7.17,44.07-6.62v-.02h0Z"/>
      <rect class="cls-3" x="80.12" y="208.08" width="196.6" height="127.58" rx="11.17" ry="11.17"/>
      <rect class="cls-3" x="80.12" y="211.91" width="196.6" height="127.58" rx="11.17" ry="11.17"/>
      <rect class="cls-11" x="80.12" y="211.91" width="196.6" height="127.58" rx="11.17" ry="11.17"/>
      <rect class="cls-3" x="92.67" y="243.63" width="39.74" height="35.03" rx="6.19" ry="6.19"/>
      <path class="cls-16" d="M132.27,264.32v3.71h-11.4c-.26,1.52-1.18,2.84-2.52,3.6l-.37.18h-.41c-.94,0-9.16.27-11.36,0s-3.71-2.76-4.4-4.42h-9.08v-3.76h11.84l.39,1.35c.43,1.49,1.31,2.96,1.75,3.11,1.33.16,6.58.1,10.14,0,.36-.51.49-1.16.39-1.78l-.19-2.03,15.23.04h0Z"/>
      <path class="cls-10" d="M132.27,257.4v-3.71h-11.4c-.26-1.51-1.18-2.83-2.52-3.59l-.37-.19h-.41c-.94,0-9.16-.27-11.36,0s-3.71,2.82-4.4,4.42h-9.08v3.71h11.84l.39-1.35c.43-1.49,1.31-2.96,1.75-3.1,1.33-.17,6.58-.1,10.14,0,.36.52.49,1.17.39,1.79l-.19,2.02h15.24Z"/>
      <rect class="cls-7" x="92.76" y="260.37" width="39.65" height=".78"/>
      <rect class="cls-1" x="92.76" y="272.65" width="39.65" height=".78"/>
      <rect class="cls-15" x="92.76" y="248.09" width="39.65" height=".78"/>
      <g class="cls-6">
        <g class="cls-6">
          <text class="cls-5" transform="translate(146.16 257.1)"><tspan x="0" y="0">CREDI</tspan></text>
        </g>
        <g class="cls-6">
          <text class="cls-4" transform="translate(177.31 257.1)"><tspan x="0" y="0">T</tspan></text>
        </g>
        <g class="cls-6">
          <text class="cls-5" transform="translate(183.88 257.1)"><tspan x="0" y="0" xml:space="preserve"> CARD</tspan></text>
        </g>
      </g>
      <rect class="cls-3" x="95.3" y="272.48" width="196.6" height="127.58" rx="11.17" ry="11.17" transform="translate(-85.61 66.83) rotate(-16.09)"/>
      <rect class="cls-3" x="96.36" y="276.16" width="196.6" height="127.58" rx="11.17" ry="11.17" transform="translate(-86.59 67.26) rotate(-16.09)"/>
      <path class="cls-21" d="M274.49,262.13l29.15,101.11c1.69,5.92-1.72,12.11-7.63,13.83l-167.42,48.31c-5.93,1.69-12.11-1.75-13.8-7.68l-13.36-46.32-15.81-54.74c-1.71-5.92,1.71-12.12,7.63-13.84l167.42-48.3c5.92-1.71,12.12,1.71,13.83,7.63h0Z"/>
      <path class="cls-13" d="M290.69,319.12l13.36,46.32c.43,5.29-2.92,10.16-8.03,11.63l-167.45,48.31c-5.93,1.69-12.11-1.75-13.8-7.68l-13.36-46.32c-.42-5.29,2.92-10.16,8.03-11.64l167.42-48.28c5.92-1.71,12.12,1.72,13.82,7.64v.02h0Z"/>
      <rect class="cls-3" x="107.45" y="326.7" width="39.74" height="35.03" rx="6.19" ry="6.19" transform="translate(-90.41 48.77) rotate(-16.09)"/>
      <path class="cls-18" d="M147.15,341.8l1.04,3.56-10.96,3.17c.17,1.52-.36,3.04-1.42,4.15l-.31.29-.39.12c-.88.29-8.74,2.82-10.91,3.14s-4.33-1.64-5.45-3.04l-8.73,2.47-1.03-3.56,11.37-3.28.71,1.2c.83,1.31,2.09,2.48,2.55,2.5,1.32-.22,6.35-1.73,9.75-2.82.2-.6.15-1.25-.13-1.83l-.73-1.88,14.65-4.19h0Z"/>
      <path class="cls-8" d="M145.22,335.14l-1.04-3.56-10.91,3.16c-.66-1.38-1.92-2.4-3.42-2.75l-.4-.08-.4.1c-.94.24-8.88,2.29-10.9,3.16s-2.82,3.69-2.99,5.48l-8.73,2.51,1.03,3.57,11.32-3.3v-1.41c0-1.55.45-3.21.83-3.47,1.23-.52,6.3-1.88,9.75-2.82.48.4.79.98.86,1.61l.39,1.99,14.62-4.2h0Z"/>
      <rect class="cls-22" x="107.44" y="343.45" width="39.65" height=".78" transform="translate(-90.31 48.74) rotate(-16.09)"/>
      <rect class="cls-14" x="110.83" y="355.26" width="39.65" height=".78" transform="translate(-93.45 50.14) rotate(-16.09)"/>
      <rect class="cls-19" x="104.02" y="331.64" width="39.65" height=".78" transform="translate(-87.17 47.33) rotate(-16.09)"/>
      <g class="cls-6">
        <g class="cls-6">
          <text class="cls-5" transform="translate(158.46 331.05) rotate(-16.26)"><tspan x="0" y="0">CREDI</tspan></text>
        </g>
        <g class="cls-6">
          <text class="cls-4" transform="translate(188.37 322.33) rotate(-16.26)"><tspan x="0" y="0">T</tspan></text>
        </g>
        <g class="cls-6">
          <text class="cls-5" transform="translate(194.67 320.5) rotate(-16.26)"><tspan x="0" y="0" xml:space="preserve"> CARD</tspan></text>
        </g>
      </g>
      <path class="cls-9" d="M296.86,292.52s-45.48,24.83-50.18,17.77c-4.7-7.06-4.98-26.66,6.54-32.9,11.5-6.24,20.12-4.7,23.5-7.84s11.29-13.33,11.29-13.33l16.74-24.58s67.96-5.64,63.78,13.85c-4.19,19.5-71.65,47.02-71.65,47.02h0Z"/>
      <path class="cls-9" d="M450.4,115.62c2.51,2.98,4.88,6.07,7.12,9.27,3.76,5.4,7.03,11.12,9.78,17.1,1.88,4.1,3.52,8.31,4.89,12.61,1.96,6.06,3.45,12.27,4.47,18.55.21,1.16.39,2.33.54,3.5l.17,1.23c-5.43,1.29-12.11,2.25-16.43,3.69-.21.08-.41.15-.63.22-1.27.43-2.53.87-3.76,1.31s-2.43.87-3.64,1.32c-1.37.5-2.75,1.02-4.11,1.54-1.28.49-2.58.99-3.85,1.51-1.1.42-2.18.87-3.27,1.32-1.46.6-2.91,1.22-4.37,1.88-1.27.55-2.53,1.11-3.76,1.67s-2.49,1.13-3.76,1.71-2.44,1.13-3.63,1.71c-.85.41-1.69.82-2.53,1.24l-.39.19c-.72.35-1.45.71-2.16,1.08l-1.11.56c-.75.39-1.49.76-2.24,1.16-.94.47-1.88.94-2.77,1.46-9.98,5.33-16.79,10.34-23.31,12.7-.22.09-.42.15-.64.23-7.52,2.48-14.74,1.27-26.16-7.3-18.2-13.65-35.4-28.93-51.88-44.6,2.89,2.75,16.39.68,27.56-1.52,6.43-1.27,12.09-2.59,14.5-3.03,11.32-2.06,22.42-5.13,33.2-9.16,14.96-5.7,41.23-26.21,62.2-33.17v.02h0Z"/>
      <path class="cls-20" d="M468.59,153.18l3.59,1.42c1.96,6.06,3.45,12.27,4.47,18.55.21,1.16.39,2.33.54,3.5-.38.08-.69.16-.94.24-5.13,1.43-10.23,2.99-15.3,4.7-.21.08-.41.15-.63.22l-3.76,1.31c-1.21.43-2.43.88-3.64,1.32-1.37.5-2.75,1.02-4.11,1.54-1.28.49-2.58,1-3.85,1.51-1.1.43-2.18.88-3.27,1.32-1.46.6-2.91,1.22-4.37,1.88l-3.76,1.67c-1.24.55-2.48,1.13-3.76,1.71s-2.44,1.13-3.63,1.71c-.85.4-1.69.82-2.53,1.24l-.39.19c-.72.35-1.45.71-2.16,1.08l-1.11.56c-.75.38-1.49.76-2.24,1.16-.94.47-1.88.94-2.77,1.46-9.98,5.33-16.79,10.34-23.31,12.7-.22.09-.42.15-.64.23,0-4.7.39-18.47,3.84-25.39.08-.16.17-.31.28-.45,6.18-8.88,73.46-35.4,73.46-35.4v.03h0Z"/>
      <path class="cls-12" d="M270.45,294.82c-1.25-2.28-3.55-4.17-6.15-4.18-1.57.11-3.1.56-4.48,1.31-3.54,1.63-7.35,3.61-8.87,7.2-1.15,2.71-.75,5.79-.34,8.69.15,1.05.41,2.26,1.37,2.71.5.2,1.06.25,1.59.16,5.93-.46,11.72-2.11,17.01-4.85,3.71-1.93,1.47-8.12-.14-11.05h0Z"/>
    </g>
  </g>
</svg>