<?xml version="1.0" encoding="UTF-8"?><svg id="Layer_1" xmlns="http://www.w3.org/2000/svg" xmlns:xlink="http://www.w3.org/1999/xlink" viewBox="0 0 500 290.99"><defs><style>.cls-1{fill:url(#Degradado_sin_nombre_5);}.cls-2{fill:#fff;}.cls-3{fill:#146c94;}.cls-4{fill:url(#Degradado_sin_nombre_4);}.cls-5{fill:#000111;}.cls-6{fill:#ffc2a7;}.cls-7{fill:url(#Degradado_sin_nombre_2);}.cls-8{fill:#f6f1f1;}.cls-9{fill:#c47e63;}.cls-10{fill:url(#Degradado_sin_nombre_3);}.cls-11{fill:url(#Degradado_sin_nombre);}.cls-12{fill:#19a7ce;}</style><linearGradient id="Degradado_sin_nombre" x1="268.55" y1="602.09" x2="237.77" y2="770.98" gradientTransform="translate(0 -578)" gradientUnits="userSpaceOnUse"><stop offset="0" stop-color="#19a7ce"/><stop offset="1" stop-color="#146c94"/></linearGradient><linearGradient id="Degradado_sin_nombre_2" x1="328.87" y1="613.08" x2="298.08" y2="781.96" gradientTransform="translate(0 -578)" gradientUnits="userSpaceOnUse"><stop offset="0" stop-color="#19a7ce"/><stop offset="1" stop-color="#146c94"/></linearGradient><linearGradient id="Degradado_sin_nombre_3" x1="217.57" y1="592.79" x2="186.79" y2="761.68" gradientTransform="translate(0 -578)" gradientUnits="userSpaceOnUse"><stop offset="0" stop-color="#19a7ce"/><stop offset="1" stop-color="#146c94"/></linearGradient><linearGradient id="Degradado_sin_nombre_4" x1="357.03" y1="539.29" x2="443.69" y2="746.16" gradientTransform="translate(0 -578)" gradientUnits="userSpaceOnUse"><stop offset="0" stop-color="#19a7ce"/><stop offset="1" stop-color="#146c94"/></linearGradient><linearGradient id="Degradado_sin_nombre_5" x1="434.92" y1="640.72" x2="373.55" y2="782.09" gradientTransform="translate(0 -578)" gradientUnits="userSpaceOnUse"><stop offset="0" stop-color="#146c94"/><stop offset=".78" stop-color="#005146"/><stop offset=".91" stop-color="#005045"/></linearGradient></defs><g id="screen_2"><path class="cls-8" d="M32.7,201.69h134.4c4.4,0,8-3.6,8-8,0-1-.2-1.9-.5-2.8l-8.6-22.8c-1.2-3.1-4.2-5.2-7.5-5.2H24.1c-4.4,0-8,3.6-8,8,0,1,.2,1.9.5,2.8l8.6,22.8c1.2,3.2,4.2,5.2,7.5,5.2Z"/><path class="cls-5" d="M81,186.59h-45.2c-.5,0-1-.3-1.2-.8l-3.7-9.5c-.1-.4-.1-.8.1-1.1.2-.3.6-.5,1-.5h44.7c.5,0,.9.3,1.1.7l4.2,9.5c.3.6,0,1.3-.6,1.6-.1.1-.2.1-.4.1ZM36.7,184.09h42.4l-3.1-7h-42.1l2.8,7Z"/><path class="cls-5" d="M98.8,186.59h-12.3c-.5,0-1-.3-1.1-.8l-3.7-9.5c-.2-.6.1-1.3.7-1.6.1-.1.3-.1.5-.1h11.8c.5,0,.9.3,1.1.7l4.2,9.5c.2.4.1.8-.1,1.2-.3.4-.7.6-1.1.6ZM87.3,184.09h9.6l-3.1-7h-9.2l2.7,7Z"/><path class="cls-5" d="M116.4,186.59h-12.3c-.5,0-1-.3-1.2-.8l-3.7-9.5c-.2-.6.1-1.3.7-1.6.1-.1.3-.1.4-.1h11.8c.5,0,.9.3,1.1.7l4.2,9.5c.3.6,0,1.3-.6,1.6,0,.2-.2.2-.4.2h0ZM104.9,184.09h9.6l-3.1-7h-9.2l2.7,7Z"/><path class="cls-5" d="M161.4,186.59h-39.1c-.5,0-1-.3-1.1-.8l-3.7-9.5c-.2-.6.1-1.3.7-1.6.1-.1.3-.1.5-.1h38.5c.5,0,.9.3,1.1.7l4.2,9.5c.3.6,0,1.3-.6,1.6-.2.2-.4.2-.5.2h0ZM123.1,184.09h36.3l-3.1-7h-35.9l2.7,7Z"/><path class="cls-5" d="M155.4,212.09H26.4c-3.3,0-6.3-2-7.6-5l-8.1-18.9c-1.8-4.2.1-9,4.3-10.8,1-.4,2.2-.7,3.3-.7.7,0,1.2.6,1.2,1.2,0,.7-.5,1.2-1.2,1.2-3.2,0-5.8,2.6-5.8,5.8,0,.8.2,1.6.5,2.3l8.2,18.9c.9,2.1,3,3.5,5.3,3.5h129.1c.7,0,1.2.6,1.2,1.2-.1.7-.7,1.2-1.4,1.3h0Z"/></g><g id="character_1"><g id="character"><path class="cls-6" d="M205.5,188.39l-.1,45.3,20,17-7.5,17.6c-5.8,13.6-19.2,22.5-34,22.5h-61.2l43.2-100.5,39.6-1.9Z"/><path class="cls-6" d="M327.6,181.39l27.4,45.3,47.6,22.5-7.5,17.6c-5.8,13.7-18.4,24.3-33.2,24.3l-62.3-.1-39.2-81.7,6.6-23.6,60.6-4.3Z"/><path class="cls-5" d="M318.9,290.89h-136.8s-6-46.6,28.7-65.1c17.8-9.4,73.7-5,108.1,65.1Z"/><path class="cls-11" d="M260.3,209.19l-41.2,3c-10.7.8-20-7.5-21.1-18.6l-3.1-33.6s1.1-12.3,16.4-14.3l72.1-5.3c4.4-.8,14.7,4.6,8.9,18.5-2.7,6.5-10.4,25.5-15.5,37.9-2.6,6.9-9,11.7-16.5,12.4Z"/><path class="cls-7" d="M284.3,140.19s12.3-1.4,19.9,6.8,23.4,34.4,23.4,34.4l-49.8,3.6,6.5-44.8Z"/><path class="cls-10" d="M211.4,145.59l-16.2,1.2s-13.8-1.7-20.7,18l-10.3,30.5,41.5-3,5.7-46.7Z"/><circle class="cls-8" cx="253.6" cy="180.59" r="6.5"/><path class="cls-5" d="M198,193.29h-.1c-.7-.1-1.2-.7-1.1-1.3l2.7-31c.1-.7.7-1.2,1.4-1.1.6.1,1.1.6,1.1,1.3l-2.7,31c-.1.6-.7,1.1-1.3,1.1Z"/><path class="cls-5" d="M280.7,185.89c-.6,0-1.1-.4-1.2-.9l-5.8-24c-.2-.7.2-1.3.9-1.5.7-.2,1.3.2,1.5.9v.1l5.8,24c.2.7-.2,1.3-.9,1.5h0l-.3-.1Z"/><path class="cls-8" d="M223.2,188.99c-4,0-6.9-.8-8.7-2.3-2-1.6-3.1-4.1-2.9-6.6.7-13.9,32.7-36.3,34-37.3.5-.4,1.3-.4,1.7.1s.4,1.3-.1,1.7q-.1.1-.2.1c-.3.2-32.4,22.6-33,35.4-.1,1.8.6,3.5,2,4.6,10.4,8.8,72-17.7,94.8-28.7.6-.3,1.3,0,1.6.6h0c.3.6,0,1.3-.6,1.6h0c-.2.1-21,10-43.2,18.5-21.1,8.3-36.2,12.3-45.4,12.3Z"/><path class="cls-6" d="M341.7,258.09c8.8,6.2,24.7,15.8,50.1-.3,4.9-3.1,10.2-10.9,18.4-11.1s15.6,2.2,18.3-4.9-3.8-13.4-16.1-12.8c0,0,7.8-5.6,13.5-5.6,7.9,0,5.7-14-9.5-15.1-12.8-1-21.5,2.5-21.5,2.5,0,0-9.8-7.4-19.9-6s-16.1,7.1-18.6,12.8c-1.5,3.4-4,6.2-7.1,8.2,0,0-6.6-8.1-12.1-10-4.6-1.6-11.1-.1-13.6,7.8s8.2,12.6,10.1,20.8c1.5,5,4.2,9.8,8,13.7Z"/><path class="cls-9" d="M336.8,281.89c-.3,0-.7-.1-.9-.4-8.1-8.7-6-16.9-4.5-22.8.6-2,1-4,1-6-.2-2.9-2.5-6.1-4.8-9.3-2.6-3.5-5.3-7.2-5.2-11,.1-4.9,1.5-8.6,4.2-11.2s6.7-3.7,11.8-3.4,6.4,4.3,7.2,7c.6,1.9.9,2.6,1.5,2.6,2.4,0,4.2-3.4,4.7-4.6.2-.6,1-1,1.6-.7s1,1,.7,1.6c-.1.3-2.4,6.2-7,6.2-2.5,0-3.2-2.3-3.8-4.4-.9-3-1.8-5-5-5.2-4.3-.3-7.7.7-10,2.8s-3.4,5.2-3.4,9.4c0,2.9,2.4,6.2,4.8,9.5,2.5,3.4,5.1,7,5.3,10.6,0,2.3-.4,4.6-1.1,6.8-1.5,6-3.3,12.8,3.9,20.5.5.5.4,1.3-.1,1.7h0c-.3.1-.6.2-.9.3Z"/><path class="cls-9" d="M367.6,241.59c-.2,0-.4-.1-.6-.2-.6-.4-.8-1.1-.4-1.7,3.1-5.2,8.8-8.7,21.9-13.1,3-1,5.1-2.8,6.1-5.1,2-4.6-.6-10.3-.6-10.4-.2-.6.2-1.3.8-1.5.5-.2,1.1.1,1.4.5.1.3,3.1,6.7.7,12.4-1.3,3-3.8,5.2-7.6,6.5-12.4,4.3-17.8,7.4-20.6,12.1-.3.3-.7.5-1.1.5Z"/><path class="cls-9" d="M396.2,250.19c-.2,0-.5-.1-.6-.2-12-7.5-21.6-8.4-27.6-7.8-3.6.2-7.1,1.3-10.2,3-.5.4-1.3.3-1.7-.2-.4-.5-.3-1.3.2-1.7l.1-.1c.6-.4,16.2-10.4,40.5,4.8.6.4.8,1.1.4,1.7h0c-.2.3-.6.5-1.1.5Z"/><path class="cls-9" d="M389.4,245.09c-.2,0-.5-.1-.6-.2-.6-.4-.7-1.1-.4-1.7,6.7-10.6,23.1-15.4,23.8-15.6.7-.2,1.3.2,1.5.8.2.7-.2,1.3-.9,1.5h0c-.2,0-16.2,4.7-22.3,14.5-.2.5-.6.7-1.1.7Z"/><path class="cls-2" d="M257.8,289.69c-.5,0-1-.3-1.2-.9l-10.8-33.1c-.1-.4-.1-.8.2-1.1.2-.3.6-.5,1-.5,8.4-.4,12.8-8.1,12.9-8.1.3-.6,1.1-.8,1.7-.5s.8,1.1.5,1.7v.1c-.2.3-4.6,8-13.3,9.2l10.4,31.6c.2.6-.1,1.3-.8,1.6h0c-.4,0-.5.1-.6,0Z"/><path class="cls-6" d="M164.5,259.59c8.8,6.2,24.7,15.8,50.1-.3,4.9-3.1,10.2-10.9,18.4-11.1s15.6,2.2,18.3-4.9-3.8-13.4-16.1-12.8c0,0,7.8-5.6,13.5-5.6,7.9,0,5.7-14-9.5-15.1-12.8-1-21.6,2.5-21.6,2.5,0,0-9.8-7.4-19.9-6s-16.1,7.1-18.6,12.8c-1.5,3.4-3.9,6.3-7.1,8.2,0,0-6.6-8.1-12.1-10-4.6-1.6-11.1-.1-13.6,7.8s8.2,12.6,10.1,20.8c1.6,5.1,4.3,9.9,8.1,13.7Z"/><path class="cls-9" d="M147,274.29h-.3c-.7-.2-1.1-.8-.9-1.5,1.3-5.3,3.4-10.3,6.4-14.9,1.9-3.2,3.4-5.5,3.2-8.3s-2.6-6.1-4.8-9.3c-2.6-3.6-5.3-7.2-5.2-11,.1-4.9,1.5-8.6,4.2-11.2s6.8-3.7,11.8-3.4,6.4,4.3,7.2,7c.6,2,.9,2.6,1.5,2.6,2.8,0,4.7-4.6,4.7-4.6,0,0,7.2-16.9,29.8-13.5.7.1,1.1.7,1,1.4-.1.7-.7,1.1-1.4,1h0c-20.6-3-26.9,11.4-27.1,12-.1.2-2.4,6.2-7,6.2-2.5,0-3.2-2.3-3.8-4.4-.9-3-1.8-5-5-5.2-4.3-.2-7.7.7-9.9,2.8s-3.4,5.2-3.4,9.4c0,2.9,2.4,6.3,4.8,9.5,2.5,3.4,5.1,6.9,5.3,10.6s-1.5,6.5-3.5,9.8c-2.9,4.3-4.9,9.1-6.1,14.1-.5.5-1,.9-1.5.9Z"/><path class="cls-9" d="M190.4,243.19c-.2,0-.4-.1-.6-.2-.6-.3-.8-1.1-.4-1.7h0c3.1-5.2,8.8-8.7,21.9-13.1,3-1,5.1-2.8,6.1-5.1,2-4.6-.6-10.3-.6-10.4-.2-.6.2-1.3.8-1.5.5-.2,1.1.1,1.4.5.1.3,3.1,6.7.7,12.4-1.3,3-3.8,5.2-7.6,6.5-12.4,4.3-17.8,7.4-20.6,12.1-.3.3-.7.5-1.1.5Z"/><path class="cls-9" d="M219,251.79c-.2,0-.5-.1-.6-.2-12-7.5-21.6-8.4-27.6-7.8-3.6.2-7.1,1.3-10.2,3-.6.4-1.3.2-1.7-.3-.4-.6-.2-1.3.3-1.7.6-.4,16.2-10.4,40.5,4.8.6.4.7,1.1.4,1.7-.3.3-.7.5-1.1.5h0Z"/><path class="cls-9" d="M212.2,246.69c-.2,0-.5-.1-.6-.2-.6-.4-.8-1.1-.4-1.7h0c6.7-10.7,23.1-15.4,23.8-15.6s1.3.2,1.5.9c.2.7-.2,1.3-.9,1.5h0c-.2,0-16.2,4.7-22.3,14.5-.2.4-.6.6-1.1.6Z"/></g><path class="cls-6" d="M226.2,107.19c-1.6,6.3-.5,13,3,18.5h0c7,11,21.6,14.2,32.6,7.2,11-7,14.2-21.6,7.2-32.6-7-11-21.6-14.2-32.6-7.2-5.1,3.3-8.7,8.3-10.2,14.1h0Z"/><ellipse class="cls-6" cx="271.2" cy="125.49" rx="3.3" ry="7.3" transform="translate(28.2 299.41) rotate(-60.42)"/><path class="cls-5" d="M226.2,107.19c-1.6,6.3-.5,13,3,18.5h0c5.3-1.1,3.5-10.7,3.5-10.7-5.9-2-2.9-14.4,3.7-13.4s5.1,8.6,5.1,8.6c17.7,10.8,30.4-2.6,30.6-2.7-3-12.7-15.7-20.6-28.4-17.6-8.6,2.2-15.3,8.8-17.5,17.3h0Z"/><path class="cls-9" d="M236,111.49l-.2-.1c.2.1,0,0-.1,0l-.2-.1c-.1-.1-.2-.1-.1,0l-.3-.3c-.2-.2.1.1,0-.1l-.1-.2c0-.1-.1-.2,0,0,0-.1-.1-.1-.1-.2l-.1-.2c-.1-.3,0,.1,0-.1s0-.5,0-.3c0-.2.1-.3.1-.5.1-.2-.1.1,0,0s.1-.1.1-.2.1-.2.2-.2c-.1.1-.1,0,0,0l.2-.2c.1-.1-.1.1,0,0l.2-.1c.1,0,.2-.1.1-.1l.2-.1h.2c-.1,0,.1,0,.1,0h.2c.1,0,.3,0,.1,0l.2.1s.3.1.2,0,.2.1.2.1c.6.3,1.4.1,1.7-.5,0-.1.1-.2.1-.3.5-1.9-.6-3.8-2.5-4.3-1.3-.4-2.7.1-3.6,1.1-.5.5-.5,1.3,0,1.7s1.3.5,1.7,0c.1-.1.1-.2.2-.2-.2.2,0,0,.1-.1s.3-.1.1-.1l.3-.1c.3-.1-.2,0,.1,0h.3c-.3,0,0,0,.1,0,.3.1-.1-.1.1,0,.1,0,.3.2.1,0,.1.1.2.1.2.2.2.2-.1-.1.1.1s.1.2.1.3c-.1-.2,0,0,0,.1s.1.3,0,.1,0,.2,0,.2c0,0,0,.1,0-.1q0,.1-.1.2l1.8-.7c-1-.6-2.2-.7-3.3-.3-2.1.7-3.3,2.9-2.6,5,.4,1.3,1.5,2.3,2.8,2.7.7.2,1.3-.2,1.5-.9.6-.4.2-1-.4-1.3h0Z"/><ellipse class="cls-2" cx="263.82" cy="117.63" rx="3.4" ry="2.9" transform="translate(136.96 377.14) rotate(-87.98)"/><ellipse class="cls-3" cx="264.53" cy="117.81" rx="2.3" ry="1.9" transform="translate(137.46 378.02) rotate(-87.98)"/><circle class="cls-5" cx="178.2" cy="105.09" r="49.8"/><circle class="cls-5" cx="108.2" cy="89.49" r="30"/><ellipse class="cls-5" cx="65.69" cy="82.91" rx="5.9" ry="23.6" transform="translate(-22.57 141.22) rotate(-85.06)"/><ellipse class="cls-5" cx="66" cy="100.67" rx="23.7" ry="6" transform="translate(-41.39 46.27) rotate(-29.89)"/><ellipse class="cls-5" cx="72.43" cy="66.5" rx="5.9" ry="23.6" transform="translate(-24.5 49.98) rotate(-32.88)"/><path class="cls-9" d="M257.7,132.89h-.2c-3.1-.5-5.2-1.8-6.3-3.8-1.6-3-.1-6.5-.1-6.6.3-.6,1-.9,1.6-.6s.9,1,.6,1.6c0,.1-1.1,2.5,0,4.5.7,1.3,2.2,2.1,4.5,2.5.7.1,1.2.7,1.1,1.4,0,.6-.5,1.1-1.2,1h0Z"/><path class="cls-12" d="M224.1,119.99c-.5,0-1-.3-1.1-.8-3.2-8.4,1.8-18.8,2-19.2.3-.6,1-.9,1.6-.6.6.3.9,1,.6,1.6h0c0,.1-4.7,9.9-2,17.3.2.6-.1,1.3-.7,1.6h0c-.2,0-.3.1-.4.1Z"/><path class="cls-12" d="M129.8,113.59c-.5,0-1-.4-1.2-.9-5.8-19.1,7-34.6,7.6-35.3.4-.5,1.2-.6,1.7-.1s.6,1.2.1,1.7h0c-.1.1-12.5,15.2-7.1,33,.2.7-.2,1.3-.8,1.5,0,.1-.1.1-.3.1Z"/><path class="cls-12" d="M80.6,99.99c-.5,0-1-.4-1.2-.9-4.4-15,3.1-24.9,3.4-25.4.4-.6,1.2-.7,1.8-.2.6.4.7,1.2.2,1.8-.1.1-7.1,9.4-3,23.1.2.7-.2,1.3-.8,1.5h0c-.2.1-.3.1-.4.1Z"/></g><g id="computer"><rect class="cls-2" x="313.7" y="277.19" width="123.3" height="13.9"/><path class="cls-5" d="M437.1,292.29h-123.4c-.7,0-1.2-.6-1.2-1.2h0v-13.9c0-.7.6-1.2,1.2-1.2h123.3c.7,0,1.2.6,1.2,1.2h0v13.9c.1.6-.5,1.2-1.1,1.2h0ZM315,289.79h120.8v-11.4h-120.8v11.4Z"/><polygon class="cls-2" points="429.8 261.99 260.6 261.99 288 132.79 457.2 132.79 429.8 261.99"/><path class="cls-5" d="M429.8,263.19h-169.2c-.4,0-.7-.2-1-.5-.2-.3-.3-.6-.2-1l27.4-129.1c.1-.6.6-1,1.2-1h169.2c.7,0,1.2.6,1.2,1.2v.2l-27.4,129.3c-.1.5-.6.9-1.2.9ZM262.1,260.79h166.7l26.9-126.8h-166.7l-26.9,126.8Z"/><polygon class="cls-2" points="445.8 261.99 276.5 261.99 303.9 132.79 473.1 132.79 445.8 261.99"/><path class="cls-5" d="M445.8,263.19h-169.3c-.4,0-.8-.2-1-.5s-.3-.6-.2-1l27.4-129.1c.1-.6.6-1,1.2-1h169.3c.4,0,.8.1,1,.4.2.3.3.6.2,1l-27.4,129.3c-.1.5-.6,1-1.2.9ZM278,260.79h166.7l26.9-126.8h-166.7l-26.9,126.8Z"/><polygon class="cls-2" points="394.2 220.59 334.9 220.59 350.1 290.99 409.4 290.99 394.2 220.59"/><path class="cls-5" d="M409.4,292.29h-59.3c-.6,0-1.1-.4-1.2-1l-15.1-70.4c-.1-.7.3-1.3.9-1.5h59.6c.6,0,1.1.4,1.2,1l15.1,70.5c.1.7-.3,1.3-1,1.5-.1-.1-.2-.1-.2-.1h0ZM351.1,289.79h56.8l-14.6-68h-56.8l14.6,68Z"/><polygon class="cls-2" points="407 220.59 347.7 220.59 362.9 290.99 422.2 290.99 407 220.59"/><path class="cls-5" d="M422.2,292.29h-59.3c-.6,0-1.1-.4-1.2-1l-15.1-70.4c-.1-.7.3-1.3,1-1.5h59.4c.6,0,1.1.4,1.2,1l15.1,70.5c.1.4,0,.7-.2,1-.2.2-.6.4-.9.4ZM363.9,289.79h56.8l-14.6-68h-56.8l14.6,68Z"/></g><g id="line"><path class="cls-5" d="M318.9,292.19H115.1c-.3,0-.7-.1-.9-.4-4.5-4.8-9.3-9.4-14.3-13.7-6.2-5.3-11.5-9-15.8-11.1,1.9,3,3.2,6.4,3.6,9.9.3,3.6-1,6.2-3.6,7-2.8,1-6-1.8-7.7-3.5-3.8-4-7-10.3-5.4-14.3.6-1.5,2.1-3.3,5.8-3.5h1c-7.3-8.6-20-17.5-38.6-20.7-.7-.1-1.2-.7-1.1-1.3s.7-1.2,1.3-1.1h.2c21.1,3.6,34.8,14.2,42,23.9,12.7,4.1,31,23.2,33.9,26.3h203.3c.7,0,1.2.5,1.2,1.2.2.7-.4,1.2-1.1,1.3q0-.1,0,0h0ZM77.5,265.09h-.5c-3,.2-3.5,1.5-3.7,2-1.1,2.9,1.7,8.3,4.9,11.7,2.3,2.4,4.2,3.2,5.1,2.9,1.9-.7,2-3.1,1.9-4.5-.2-3-1.9-7.2-5.1-11.6-.9-.4-1.7-.5-2.6-.5Z"/></g><g id="screen"><g id="pop_up_1"><path class="cls-4" d="M458,114.69h-147c-3.4,0-6.1-2.7-6.1-6.1,0-.5.1-1,.2-1.5l25.9-101.6c.7-2.7,3.1-4.6,5.9-4.6h147c3.4,0,6.1,2.7,6.1,6.1,0,.5-.1,1-.2,1.5l-25.9,101.6c-.7,2.8-3.1,4.7-5.9,4.6Z"/><polygon class="cls-2" points="391.6 23.99 339.4 23.99 342.4 13.49 394.6 13.49 391.6 23.99"/><polygon class="cls-2" points="405.2 23.99 397.6 23.99 400.6 13.49 408.2 13.49 405.2 23.99"/><polygon class="cls-2" points="417.8 23.99 410.2 23.99 413.2 13.49 420.8 13.49 417.8 23.99"/><polygon class="cls-2" points="430.4 23.99 422.8 23.99 425.8 13.49 433.4 13.49 430.4 23.99"/><polygon class="cls-2" points="475.5 23.99 435.4 23.99 438.4 13.49 478.4 13.49 475.5 23.99"/><polygon class="cls-2" points="399.3 40.49 391.8 40.49 394.8 29.89 402.3 29.89 399.3 40.49"/><polygon class="cls-2" points="411.9 40.49 404.4 40.49 407.4 29.89 414.9 29.89 411.9 40.49"/><polygon class="cls-2" points="424.5 40.49 417 40.49 419.9 29.89 427.5 29.89 424.5 40.49"/><polygon class="cls-2" points="362.2 40.49 334.4 40.49 337.3 29.89 365.2 29.89 362.2 40.49"/><polygon class="cls-2" points="374.8 40.49 367.3 40.49 370.2 29.89 377.8 29.89 374.8 40.49"/><polygon class="cls-2" points="387.4 40.49 379.8 40.49 382.8 29.89 390.4 29.89 387.4 40.49"/><polygon class="cls-2" points="469.6 40.49 429.5 40.49 432.5 29.89 472.6 29.89 469.6 40.49"/><path class="cls-2" d="M380.6,58.09h-53.6l3.3-11.7h53.5l-3.2,11.7ZM328.7,56.79h51l2.6-9.3h-51l-2.6,9.3Z"/><path class="cls-2" d="M394.1,58.09h-8.8l3.3-11.7h8.8l-3.3,11.7ZM386.9,56.79h6.3l2.6-9.3h-6.3l-2.6,9.3Z"/><path class="cls-2" d="M406.7,58.09h-8.8l3.3-11.7h8.8l-3.3,11.7ZM399.5,56.79h6.3l2.6-9.3h-6.3l-2.6,9.3Z"/><path class="cls-2" d="M419.3,58.09h-8.8l3.3-11.7h8.8l-3.3,11.7ZM412.1,56.79h6.3l2.6-9.2h-6.3l-2.6,9.2Z"/><path class="cls-2" d="M464.4,58.09h-41.3l3.3-11.7h41.3l-3.3,11.7ZM424.7,56.79h38.8l2.6-9.3h-38.8l-2.6,9.3Z"/><path class="cls-2" d="M388.3,74.49h-8.8l3.3-11.7h8.8l-3.3,11.7ZM381.1,73.29h6.3l2.6-9.3h-6.3l-2.6,9.3Z"/><path class="cls-2" d="M400.8,74.49h-8.8l3.3-11.7h8.8l-3.3,11.7ZM393.6,73.29h6.3l2.6-9.3h-6.3l-2.6,9.3Z"/><path class="cls-2" d="M413.4,74.49h-8.8l3.3-11.7h8.8l-3.3,11.7ZM406.2,73.29h6.3l2.6-9.3h-6.3l-2.6,9.3Z"/><path class="cls-2" d="M351.1,74.49h-29.1l3.3-11.7h29.1l-3.3,11.7ZM323.6,73.29h26.6l2.6-9.3h-26.6l-2.6,9.3Z"/><path class="cls-2" d="M363.7,74.49h-8.8l3.3-11.7h8.8l-3.3,11.7ZM356.5,73.29h6.3l2.6-9.3h-6.3l-2.6,9.3Z"/><path class="cls-2" d="M376.3,74.49h-8.8l3.3-11.7h8.8l-3.3,11.7ZM369.1,73.29h6.3l2.6-9.3h-6.3l-2.6,9.3Z"/><path class="cls-2" d="M458.5,74.49h-41.3l3.3-11.7h41.3l-3.3,11.7ZM418.8,73.29h38.8l2.6-9.3h-38.8l-2.6,9.3Z"/><path class="cls-2" d="M457.6,81.89h-136.6c-.3,0-.6-.3-.6-.6s.3-.6.6-.6h136.5c.3,0,.6.3.6.6.1.3-.2.6-.5.6h0Z"/><path class="cls-2" d="M456,88.39h-136.6c-.3,0-.6-.3-.6-.6s.3-.6.6-.6h136.6c.3,0,.6.3.6.6,0,.4-.3.6-.6.6h0Z"/><polygon class="cls-2" points="316.1 100.89 452.7 100.89 454.3 94.39 317.8 94.39 316.1 100.89"/></g><path class="cls-1" d="M379,168.39h62.6c3.7,0,6.6-3,6.6-6.6,0-.8-.2-1.6-.4-2.4l-17.4-44.4c-1-2.5-3.4-4.2-6.2-4.2h-62.7c-3.7,0-6.6,3-6.6,6.6,0,.8.2,1.6.4,2.4l17.3,44.4c1.2,2.5,3.7,4.2,6.4,4.2Z"/><path class="cls-2" d="M381.1,149.99c-.7,0-1.2-.5-1.2-1.2,0-.3.1-.7.4-.9l9.6-9.3-15-12c-.5-.4-.6-1.2-.2-1.7s1.2-.6,1.7-.2h0l16.1,12.9c.3.2.4.5.5.9,0,.4-.1.7-.4.9l-10.6,10.2c-.2.2-.6.4-.9.4Z"/><path class="cls-2" d="M427.5,149.69c-.2,0-.4-.1-.6-.2l-17-10.2c-.4-.2-.6-.6-.6-1s.2-.8.5-1l16.1-12.9c.5-.4,1.3-.3,1.7.2.4.5.3,1.3-.2,1.7h0l-14.7,11.8,15.5,9.3c.6.4.8,1.1.4,1.7-.4.4-.8.7-1.1.6h0Z"/><path class="cls-2" d="M403.9,149.99c-.6,0-1.1-.4-1.2-.9l-6.8-27c-.2-.7.2-1.3.9-1.5.7-.2,1.3.2,1.5.9h0l6.8,27c.2.7-.2,1.3-.9,1.5h-.3Z"/><path class="cls-5" d="M430.5,116.19c-.4,0-.9-.2-1.1-.6l-.4-.6c-1.3-2.3-3.8-3.8-6.5-3.8h0l-59.1.1c-.1,0-6.4-.1-6.8,3.6-.1.7-.7,1.2-1.4,1.1-.7-.1-1.1-.7-1.1-1.4h0c.7-5.8,8.9-5.7,9.3-5.7l59.1-.1h0c3.6,0,6.9,1.9,8.7,5l.4.6c.3.6.1,1.3-.4,1.7h0c-.3,0-.5,0-.7.1Z"/></g><g id="light"><path class="cls-8" d="M258.1,62.09c-9.7.7-17.5,8.3-18.5,18-1-9.7-8.8-17.3-18.5-18,9.7-.7,17.5-8.3,18.5-18.1,1,9.8,8.8,17.4,18.5,18.1h0Z"/><path class="cls-8" d="M271.1,39.89c-5.2.4-9.4,4.5-9.9,9.6-.5-5.2-4.7-9.3-9.9-9.6,5.2-.4,9.4-4.5,9.9-9.6.5,5.1,4.6,9.2,9.9,9.6Z"/></g></svg>